<svg xmlns="http://www.w3.org/2000/svg" width="1200" height="820" viewBox="0 0 1200 820">
<rect width="100%" height="100%" fill="#ffffff"/>
<style>
text { font-family: Arial, Helvetica, sans-serif; fill: #1f2933; }
.small { font-size: 12px; }
.label { font-size: 13px; }
.title { font-size: 18px; font-weight: 700; }
.panel { font-size: 14px; font-weight: 700; }
.axis { stroke: #404850; stroke-width: 1.2; }
.grid { stroke: #e4e8ec; stroke-width: 1; }
</style>
<text class="title" x="42.0" y="42.0" text-anchor="start">11_user_bright_tempered: Requested palette, dissertation-tempered</text>
<text class="label" x="42.0" y="68.0" text-anchor="start">A calmer version inspired by the requested colors. It keeps the red-purple-blue-green structure but lowers saturation for a less poppy scientific look.</text>
<rect x="42" y="92" width="44" height="26" rx="3" fill="#c40d1e" stroke="#222" stroke-width="0.5"/>
<text class="small" x="98.0" y="111.0" text-anchor="start">M1 #c40d1e</text>
<rect x="212" y="92" width="44" height="26" rx="3" fill="#6f4a8e" stroke="#222" stroke-width="0.5"/>
<text class="small" x="268.0" y="111.0" text-anchor="start">M2 #6f4a8e</text>
<rect x="382" y="92" width="44" height="26" rx="3" fill="#2f7898" stroke="#222" stroke-width="0.5"/>
<text class="small" x="438.0" y="111.0" text-anchor="start">M3 #2f7898</text>
<rect x="552" y="92" width="44" height="26" rx="3" fill="#6f9a63" stroke="#222" stroke-width="0.5"/>
<text class="small" x="608.0" y="111.0" text-anchor="start">M4 #6f9a63</text>
<rect x="42" y="128" width="34" height="18" rx="2" fill="#000000" stroke="#222" stroke-width="0.5"/>
<text class="small" x="86.0" y="143.0" text-anchor="start">N1 #000000</text>
<rect x="170" y="128" width="34" height="18" rx="2" fill="#434343" stroke="#222" stroke-width="0.5"/>
<text class="small" x="214.0" y="143.0" text-anchor="start">N2 #434343</text>
<rect x="298" y="128" width="34" height="18" rx="2" fill="#b2b2b2" stroke="#222" stroke-width="0.5"/>
<text class="small" x="342.0" y="143.0" text-anchor="start">N3 #b2b2b2</text>
<rect x="70" y="170" width="470" height="210" fill="#ffffff" stroke="#d7dde3" stroke-width="1"/>
<line class="grid" x1="70" y1="327.5" x2="540" y2="327.5"/>
<line class="grid" x1="70" y1="275.0" x2="540" y2="275.0"/>
<line class="grid" x1="70" y1="222.5" x2="540" y2="222.5"/>
<line class="axis" x1="70" y1="380" x2="540" y2="380"/>
<line class="axis" x1="70" y1="170" x2="70" y2="380"/>
<text class="panel" x="70.0" y="160.0" text-anchor="start">time-series / estimator traces</text>
<polyline points="70.0,266.6 80.0,261.4 90.0,256.5 100.0,252.2 110.0,248.4 120.0,245.1 130.0,242.4 140.0,240.3 150.0,238.8 160.0,237.7 170.0,237.2 180.0,237.1 190.0,237.6 200.0,238.5 210.0,239.8 220.0,241.6 230.0,243.8 240.0,246.6 250.0,249.8 260.0,253.4 270.0,257.5 280.0,262.0 290.0,266.9 300.0,272.0 310.0,277.4 320.0,282.8 330.0,288.2 340.0,293.4 350.0,298.2 360.0,302.6 370.0,306.3 380.0,309.2 390.0,311.2 400.0,312.3 410.0,312.3 420.0,311.2 430.0,309.2 440.0,306.1 450.0,302.1 460.0,297.3 470.0,291.9 480.0,286.1 490.0,279.9 500.0,273.6 510.0,267.4 520.0,261.5 530.0,255.9 540.0,250.8" fill="none" stroke="#c40d1e" stroke-width="2.5" stroke-linecap="round" stroke-linejoin="round"/>
<polyline points="70.0,239.5 80.0,235.3 90.0,231.8 100.0,229.2 110.0,227.4 120.0,226.5 130.0,226.4 140.0,227.0 150.0,228.3 160.0,230.2 170.0,232.6 180.0,235.4 190.0,238.6 200.0,242.0 210.0,245.7 220.0,249.6 230.0,253.7 240.0,257.8 250.0,262.0 260.0,266.4 270.0,270.7 280.0,275.0 290.0,279.3 300.0,283.4 310.0,287.4 320.0,291.1 330.0,294.4 340.0,297.3 350.0,299.6 360.0,301.2 370.0,302.0 380.0,302.0 390.0,301.1 400.0,299.3 410.0,296.6 420.0,292.9 430.0,288.5 440.0,283.3 450.0,277.6 460.0,271.4 470.0,264.9 480.0,258.4 490.0,252.0 500.0,245.9 510.0,240.3 520.0,235.4 530.0,231.2 540.0,227.9" fill="none" stroke="#6f4a8e" stroke-width="2.5" stroke-linecap="round" stroke-linejoin="round"/>
<polyline points="70.0,218.2 80.0,216.3 90.0,215.3 100.0,215.4 110.0,216.5 120.0,218.5 130.0,221.3 140.0,224.8 150.0,228.9 160.0,233.4 170.0,238.2 180.0,243.1 190.0,248.1 200.0,253.1 210.0,257.9 220.0,262.5 230.0,266.8 240.0,270.9 250.0,274.6 260.0,277.9 270.0,280.9 280.0,283.6 290.0,285.8 300.0,287.7 310.0,289.1 320.0,290.1 330.0,290.6 340.0,290.6 350.0,289.9 360.0,288.6 370.0,286.7 380.0,284.1 390.0,280.8 400.0,276.9 410.0,272.3 420.0,267.2 430.0,261.6 440.0,255.8 450.0,249.7 460.0,243.6 470.0,237.7 480.0,232.2 490.0,227.1 500.0,222.7 510.0,219.1 520.0,216.4 530.0,214.8 540.0,214.2" fill="none" stroke="#2f7898" stroke-width="2.5" stroke-linecap="round" stroke-linejoin="round"/>
<polyline points="70.0,206.9 80.0,207.8 90.0,209.8 100.0,212.8 110.0,216.7 120.0,221.3 130.0,226.6 140.0,232.2 150.0,238.2 160.0,244.2 170.0,250.2 180.0,255.9 190.0,261.3 200.0,266.2 210.0,270.5 220.0,274.2 230.0,277.3 240.0,279.7 250.0,281.4 260.0,282.6 270.0,283.1 280.0,283.0 290.0,282.5 300.0,281.4 310.0,279.9 320.0,278.0 330.0,275.7 340.0,273.0 350.0,269.9 360.0,266.5 370.0,262.7 380.0,258.5 390.0,254.1 400.0,249.4 410.0,244.4 420.0,239.4 430.0,234.3 440.0,229.3 450.0,224.5 460.0,220.1 470.0,216.2 480.0,212.8 490.0,210.3 500.0,208.6 510.0,207.8 520.0,208.0 530.0,209.3 540.0,211.6" fill="none" stroke="#6f9a63" stroke-width="2.5" stroke-linecap="round" stroke-linejoin="round"/>
<line x1="86" y1="408" x2="108" y2="408" stroke="#c40d1e" stroke-width="3"/>
<text class="small" x="114.0" y="412.0" text-anchor="start">M1</text>
<line x1="171" y1="408" x2="193" y2="408" stroke="#6f4a8e" stroke-width="3"/>
<text class="small" x="199.0" y="412.0" text-anchor="start">M2</text>
<line x1="256" y1="408" x2="278" y2="408" stroke="#2f7898" stroke-width="3"/>
<text class="small" x="284.0" y="412.0" text-anchor="start">M3</text>
<line x1="341" y1="408" x2="363" y2="408" stroke="#6f9a63" stroke-width="3"/>
<text class="small" x="369.0" y="412.0" text-anchor="start">M4</text>
<rect x="675" y="170" width="390" height="210" fill="#ffffff" stroke="#d7dde3" stroke-width="1"/>
<line class="grid" x1="675" y1="327.5" x2="1065" y2="327.5"/>
<line class="grid" x1="675" y1="275.0" x2="1065" y2="275.0"/>
<line class="grid" x1="675" y1="222.5" x2="1065" y2="222.5"/>
<line class="axis" x1="675" y1="380" x2="1065" y2="380"/>
<line class="axis" x1="675" y1="170" x2="675" y2="380"/>
<text class="panel" x="675.0" y="160.0" text-anchor="start">bar chart / MAE-style comparison</text>
<rect x="719.4" y="228.8" width="42" height="151.2" fill="#d03d4b" stroke="#c40d1e" stroke-width="2"/>
<text class="small" x="740.4" y="400.0" text-anchor="middle">M1</text>
<rect x="805.8" y="281.3" width="42" height="98.7" fill="#8c6ea5" stroke="#6f4a8e" stroke-width="2"/>
<text class="small" x="826.8" y="400.0" text-anchor="middle">M2</text>
<rect x="892.2" y="258.2" width="42" height="121.8" fill="#5993ad" stroke="#2f7898" stroke-width="2"/>
<text class="small" x="913.2" y="400.0" text-anchor="middle">M3</text>
<rect x="978.6" y="304.4" width="42" height="75.6" fill="#8cae82" stroke="#6f9a63" stroke-width="2"/>
<text class="small" x="999.6" y="400.0" text-anchor="middle">M4</text>
<rect x="70" y="510" width="470" height="210" fill="#ffffff" stroke="#d7dde3" stroke-width="1"/>
<line class="grid" x1="70" y1="667.5" x2="540" y2="667.5"/>
<line class="grid" x1="70" y1="615.0" x2="540" y2="615.0"/>
<line class="grid" x1="70" y1="562.5" x2="540" y2="562.5"/>
<line class="axis" x1="70" y1="720" x2="540" y2="720"/>
<line class="axis" x1="70" y1="510" x2="70" y2="720"/>
<text class="panel" x="70.0" y="500.0" text-anchor="start">boxplot / distribution view</text>
<line x1="164.0" y1="678.0" x2="164.0" y2="556.2" stroke="#c40d1e" stroke-width="2"/>
<line x1="152.0" y1="678.0" x2="176.0" y2="678.0" stroke="#c40d1e" stroke-width="2"/>
<line x1="152.0" y1="556.2" x2="176.0" y2="556.2" stroke="#c40d1e" stroke-width="2"/>
<rect x="145.0" y="591.9" width="38" height="56.7" fill="#d5515d" stroke="#c40d1e" stroke-width="2"/>
<line x1="145.0" y1="623.4" x2="183.0" y2="623.4" stroke="#1f2933" stroke-width="2"/>
<polygon points="164.0,609.0 170.0,615.0 164.0,621.0 158.0,615.0" fill="#ffffff" stroke="#c40d1e" stroke-width="2"/>
<text class="small" x="164.0" y="740.0" text-anchor="middle">M1</text>
<line x1="258.0" y1="690.6" x2="258.0" y2="575.1" stroke="#6f4a8e" stroke-width="2"/>
<line x1="246.0" y1="690.6" x2="270.0" y2="690.6" stroke="#6f4a8e" stroke-width="2"/>
<line x1="246.0" y1="575.1" x2="270.0" y2="575.1" stroke="#6f4a8e" stroke-width="2"/>
<rect x="239.0" y="604.5" width="38" height="63.0" fill="#977dae" stroke="#6f4a8e" stroke-width="2"/>
<line x1="239.0" y1="638.1" x2="277.0" y2="638.1" stroke="#1f2933" stroke-width="2"/>
<polygon points="258.0,623.7 264.0,629.7 258.0,635.7 252.0,629.7" fill="#ffffff" stroke="#6f4a8e" stroke-width="2"/>
<text class="small" x="258.0" y="740.0" text-anchor="middle">M2</text>
<line x1="352.0" y1="682.2" x2="352.0" y2="568.8" stroke="#2f7898" stroke-width="2"/>
<line x1="340.0" y1="682.2" x2="364.0" y2="682.2" stroke="#2f7898" stroke-width="2"/>
<line x1="340.0" y1="568.8" x2="364.0" y2="568.8" stroke="#2f7898" stroke-width="2"/>
<rect x="333.0" y="610.8" width="38" height="46.2" fill="#699eb5" stroke="#2f7898" stroke-width="2"/>
<line x1="333.0" y1="631.8" x2="371.0" y2="631.8" stroke="#1f2933" stroke-width="2"/>
<polygon points="352.0,619.5 358.0,625.5 352.0,631.5 346.0,625.5" fill="#ffffff" stroke="#2f7898" stroke-width="2"/>
<text class="small" x="352.0" y="740.0" text-anchor="middle">M3</text>
<line x1="446.0" y1="699.0" x2="446.0" y2="594.0" stroke="#6f9a63" stroke-width="2"/>
<line x1="434.0" y1="699.0" x2="458.0" y2="699.0" stroke="#6f9a63" stroke-width="2"/>
<line x1="434.0" y1="594.0" x2="458.0" y2="594.0" stroke="#6f9a63" stroke-width="2"/>
<rect x="427.0" y="625.5" width="38" height="50.4" fill="#97b68f" stroke="#6f9a63" stroke-width="2"/>
<line x1="427.0" y1="652.8" x2="465.0" y2="652.8" stroke="#1f2933" stroke-width="2"/>
<polygon points="446.0,638.4 452.0,644.4 446.0,650.4 440.0,644.4" fill="#ffffff" stroke="#6f9a63" stroke-width="2"/>
<text class="small" x="446.0" y="740.0" text-anchor="middle">M4</text>
<text class="small" x="536.0" y="762.0" text-anchor="end">line = median, diamond = mean/MAE marker</text>
<rect x="675" y="510" width="390" height="210" fill="#ffffff" stroke="#d7dde3" stroke-width="1"/>
<line class="grid" x1="675" y1="667.5" x2="1065" y2="667.5"/>
<line class="grid" x1="675" y1="615.0" x2="1065" y2="615.0"/>
<line class="grid" x1="675" y1="562.5" x2="1065" y2="562.5"/>
<line class="axis" x1="675" y1="720" x2="1065" y2="720"/>
<line class="axis" x1="675" y1="510" x2="675" y2="720"/>
<text class="panel" x="675.0" y="500.0" text-anchor="start">scatter / measured vs. predicted</text>
<circle cx="693.0" cy="688.5" r="3.7" fill="#cb2a39" stroke="#c40d1e" stroke-width="1.2" opacity="0.88"/>
<circle cx="706.0" cy="659.3" r="3.7" fill="#cb2a39" stroke="#c40d1e" stroke-width="1.2" opacity="0.88"/>
<circle cx="719.0" cy="626.1" r="3.7" fill="#cb2a39" stroke="#c40d1e" stroke-width="1.2" opacity="0.88"/>
<circle cx="732.0" cy="587.5" r="3.7" fill="#cb2a39" stroke="#c40d1e" stroke-width="1.2" opacity="0.88"/>
<circle cx="745.0" cy="545.2" r="3.7" fill="#cb2a39" stroke="#c40d1e" stroke-width="1.2" opacity="0.88"/>
<circle cx="758.0" cy="650.2" r="3.7" fill="#cb2a39" stroke="#c40d1e" stroke-width="1.2" opacity="0.88"/>
<circle cx="771.0" cy="612.3" r="3.7" fill="#cb2a39" stroke="#c40d1e" stroke-width="1.2" opacity="0.88"/>
<circle cx="784.0" cy="579.9" r="3.7" fill="#cb2a39" stroke="#c40d1e" stroke-width="1.2" opacity="0.88"/>
<circle cx="797.0" cy="550.9" r="3.7" fill="#cb2a39" stroke="#c40d1e" stroke-width="1.2" opacity="0.88"/>
<circle cx="810.0" cy="668.3" r="3.7" fill="#cb2a39" stroke="#c40d1e" stroke-width="1.2" opacity="0.88"/>
<circle cx="823.0" cy="634.4" r="3.7" fill="#cb2a39" stroke="#c40d1e" stroke-width="1.2" opacity="0.88"/>
<circle cx="836.0" cy="595.1" r="3.7" fill="#cb2a39" stroke="#c40d1e" stroke-width="1.2" opacity="0.88"/>
<circle cx="849.0" cy="552.5" r="3.7" fill="#cb2a39" stroke="#c40d1e" stroke-width="1.2" opacity="0.88"/>
<circle cx="862.0" cy="657.9" r="3.7" fill="#cb2a39" stroke="#c40d1e" stroke-width="1.2" opacity="0.88"/>
<circle cx="875.0" cy="620.9" r="3.7" fill="#cb2a39" stroke="#c40d1e" stroke-width="1.2" opacity="0.88"/>
<circle cx="888.0" cy="589.2" r="3.7" fill="#cb2a39" stroke="#c40d1e" stroke-width="1.2" opacity="0.88"/>
<circle cx="901.0" cy="560.4" r="3.7" fill="#cb2a39" stroke="#c40d1e" stroke-width="1.2" opacity="0.88"/>
<circle cx="914.0" cy="677.3" r="3.7" fill="#cb2a39" stroke="#c40d1e" stroke-width="1.2" opacity="0.88"/>
<circle cx="927.0" cy="642.6" r="3.7" fill="#cb2a39" stroke="#c40d1e" stroke-width="1.2" opacity="0.88"/>
<circle cx="940.0" cy="602.6" r="3.7" fill="#cb2a39" stroke="#c40d1e" stroke-width="1.2" opacity="0.88"/>
<circle cx="953.0" cy="559.9" r="3.7" fill="#cb2a39" stroke="#c40d1e" stroke-width="1.2" opacity="0.88"/>
<circle cx="966.0" cy="665.8" r="3.7" fill="#cb2a39" stroke="#c40d1e" stroke-width="1.2" opacity="0.88"/>
<circle cx="724.0" cy="677.2" r="3.7" fill="#80609c" stroke="#6f4a8e" stroke-width="1.2" opacity="0.88"/>
<circle cx="737.0" cy="642.7" r="3.7" fill="#80609c" stroke="#6f4a8e" stroke-width="1.2" opacity="0.88"/>
<circle cx="750.0" cy="602.8" r="3.7" fill="#80609c" stroke="#6f4a8e" stroke-width="1.2" opacity="0.88"/>
<circle cx="763.0" cy="560.2" r="3.7" fill="#80609c" stroke="#6f4a8e" stroke-width="1.2" opacity="0.88"/>
<circle cx="776.0" cy="666.0" r="3.7" fill="#80609c" stroke="#6f4a8e" stroke-width="1.2" opacity="0.88"/>
<circle cx="789.0" cy="629.5" r="3.7" fill="#80609c" stroke="#6f4a8e" stroke-width="1.2" opacity="0.88"/>
<circle cx="802.0" cy="598.2" r="3.7" fill="#80609c" stroke="#6f4a8e" stroke-width="1.2" opacity="0.88"/>
<circle cx="815.0" cy="569.5" r="3.7" fill="#80609c" stroke="#6f4a8e" stroke-width="1.2" opacity="0.88"/>
<circle cx="828.0" cy="686.1" r="3.7" fill="#80609c" stroke="#6f4a8e" stroke-width="1.2" opacity="0.88"/>
<circle cx="841.0" cy="650.8" r="3.7" fill="#80609c" stroke="#6f4a8e" stroke-width="1.2" opacity="0.88"/>
<circle cx="854.0" cy="610.3" r="3.7" fill="#80609c" stroke="#6f4a8e" stroke-width="1.2" opacity="0.88"/>
<circle cx="867.0" cy="567.6" r="3.7" fill="#80609c" stroke="#6f4a8e" stroke-width="1.2" opacity="0.88"/>
<circle cx="880.0" cy="673.9" r="3.7" fill="#80609c" stroke="#6f4a8e" stroke-width="1.2" opacity="0.88"/>
<circle cx="893.0" cy="638.2" r="3.7" fill="#80609c" stroke="#6f4a8e" stroke-width="1.2" opacity="0.88"/>
<circle cx="906.0" cy="607.6" r="3.7" fill="#80609c" stroke="#6f4a8e" stroke-width="1.2" opacity="0.88"/>
<circle cx="919.0" cy="578.9" r="3.7" fill="#80609c" stroke="#6f4a8e" stroke-width="1.2" opacity="0.88"/>
<circle cx="932.0" cy="694.9" r="3.7" fill="#80609c" stroke="#6f4a8e" stroke-width="1.2" opacity="0.88"/>
<circle cx="945.0" cy="658.8" r="3.7" fill="#80609c" stroke="#6f4a8e" stroke-width="1.2" opacity="0.88"/>
<circle cx="958.0" cy="617.7" r="3.7" fill="#80609c" stroke="#6f4a8e" stroke-width="1.2" opacity="0.88"/>
<circle cx="971.0" cy="575.0" r="3.7" fill="#80609c" stroke="#6f4a8e" stroke-width="1.2" opacity="0.88"/>
<circle cx="984.0" cy="534.9" r="3.7" fill="#80609c" stroke="#6f4a8e" stroke-width="1.2" opacity="0.88"/>
<circle cx="997.0" cy="647.1" r="3.7" fill="#80609c" stroke="#6f4a8e" stroke-width="1.2" opacity="0.88"/>
<circle cx="755.0" cy="658.9" r="3.7" fill="#4888a4" stroke="#2f7898" stroke-width="1.2" opacity="0.88"/>
<circle cx="768.0" cy="618.0" r="3.7" fill="#4888a4" stroke="#2f7898" stroke-width="1.2" opacity="0.88"/>
<circle cx="781.0" cy="575.3" r="3.7" fill="#4888a4" stroke="#2f7898" stroke-width="1.2" opacity="0.88"/>
<circle cx="794.0" cy="535.0" r="3.7" fill="#4888a4" stroke="#2f7898" stroke-width="1.2" opacity="0.88"/>
<circle cx="807.0" cy="646.9" r="3.7" fill="#4888a4" stroke="#2f7898" stroke-width="1.2" opacity="0.88"/>
<circle cx="820.0" cy="616.7" r="3.7" fill="#4888a4" stroke="#2f7898" stroke-width="1.2" opacity="0.88"/>
<circle cx="833.0" cy="587.9" r="3.7" fill="#4888a4" stroke="#2f7898" stroke-width="1.2" opacity="0.88"/>
<circle cx="846.0" cy="556.5" r="3.7" fill="#4888a4" stroke="#2f7898" stroke-width="1.2" opacity="0.88"/>
<circle cx="859.0" cy="666.8" r="3.7" fill="#4888a4" stroke="#2f7898" stroke-width="1.2" opacity="0.88"/>
<circle cx="872.0" cy="625.4" r="3.7" fill="#4888a4" stroke="#2f7898" stroke-width="1.2" opacity="0.88"/>
<circle cx="885.0" cy="582.8" r="3.7" fill="#4888a4" stroke="#2f7898" stroke-width="1.2" opacity="0.88"/>
<circle cx="898.0" cy="543.2" r="3.7" fill="#4888a4" stroke="#2f7898" stroke-width="1.2" opacity="0.88"/>
<circle cx="911.0" cy="655.9" r="3.7" fill="#4888a4" stroke="#2f7898" stroke-width="1.2" opacity="0.88"/>
<circle cx="924.0" cy="626.1" r="3.7" fill="#4888a4" stroke="#2f7898" stroke-width="1.2" opacity="0.88"/>
<circle cx="937.0" cy="597.2" r="3.7" fill="#4888a4" stroke="#2f7898" stroke-width="1.2" opacity="0.88"/>
<circle cx="950.0" cy="565.1" r="3.7" fill="#4888a4" stroke="#2f7898" stroke-width="1.2" opacity="0.88"/>
<circle cx="963.0" cy="674.6" r="3.7" fill="#4888a4" stroke="#2f7898" stroke-width="1.2" opacity="0.88"/>
<circle cx="976.0" cy="632.8" r="3.7" fill="#4888a4" stroke="#2f7898" stroke-width="1.2" opacity="0.88"/>
<circle cx="989.0" cy="590.4" r="3.7" fill="#4888a4" stroke="#2f7898" stroke-width="1.2" opacity="0.88"/>
<circle cx="1002.0" cy="551.4" r="3.7" fill="#4888a4" stroke="#2f7898" stroke-width="1.2" opacity="0.88"/>
<circle cx="1015.0" cy="664.9" r="3.7" fill="#4888a4" stroke="#2f7898" stroke-width="1.2" opacity="0.88"/>
<circle cx="1028.0" cy="635.6" r="3.7" fill="#4888a4" stroke="#2f7898" stroke-width="1.2" opacity="0.88"/>
<circle cx="786.0" cy="633.1" r="3.7" fill="#80a676" stroke="#6f9a63" stroke-width="1.2" opacity="0.88"/>
<circle cx="799.0" cy="590.6" r="3.7" fill="#80a676" stroke="#6f9a63" stroke-width="1.2" opacity="0.88"/>
<circle cx="812.0" cy="551.5" r="3.7" fill="#80a676" stroke="#6f9a63" stroke-width="1.2" opacity="0.88"/>
<circle cx="825.0" cy="664.7" r="3.7" fill="#80a676" stroke="#6f9a63" stroke-width="1.2" opacity="0.88"/>
<circle cx="838.0" cy="635.3" r="3.7" fill="#80a676" stroke="#6f9a63" stroke-width="1.2" opacity="0.88"/>
<circle cx="851.0" cy="606.2" r="3.7" fill="#80a676" stroke="#6f9a63" stroke-width="1.2" opacity="0.88"/>
<circle cx="864.0" cy="573.6" r="3.7" fill="#80a676" stroke="#6f9a63" stroke-width="1.2" opacity="0.88"/>
<circle cx="877.0" cy="682.5" r="3.7" fill="#80a676" stroke="#6f9a63" stroke-width="1.2" opacity="0.88"/>
<circle cx="890.0" cy="640.4" r="3.7" fill="#80a676" stroke="#6f9a63" stroke-width="1.2" opacity="0.88"/>
<circle cx="903.0" cy="598.2" r="3.7" fill="#80a676" stroke="#6f9a63" stroke-width="1.2" opacity="0.88"/>
<circle cx="916.0" cy="559.8" r="3.7" fill="#80a676" stroke="#6f9a63" stroke-width="1.2" opacity="0.88"/>
<circle cx="929.0" cy="673.9" r="3.7" fill="#80a676" stroke="#6f9a63" stroke-width="1.2" opacity="0.88"/>
<circle cx="942.0" cy="644.7" r="3.7" fill="#80a676" stroke="#6f9a63" stroke-width="1.2" opacity="0.88"/>
<circle cx="955.0" cy="615.4" r="3.7" fill="#80a676" stroke="#6f9a63" stroke-width="1.2" opacity="0.88"/>
<circle cx="968.0" cy="582.0" r="3.7" fill="#80a676" stroke="#6f9a63" stroke-width="1.2" opacity="0.88"/>
<circle cx="981.0" cy="690.2" r="3.7" fill="#80a676" stroke="#6f9a63" stroke-width="1.2" opacity="0.88"/>
<circle cx="994.0" cy="647.8" r="3.7" fill="#80a676" stroke="#6f9a63" stroke-width="1.2" opacity="0.88"/>
<circle cx="1007.0" cy="605.9" r="3.7" fill="#80a676" stroke="#6f9a63" stroke-width="1.2" opacity="0.88"/>
<circle cx="1020.0" cy="568.3" r="3.7" fill="#80a676" stroke="#6f9a63" stroke-width="1.2" opacity="0.88"/>
<circle cx="1033.0" cy="683.1" r="3.7" fill="#80a676" stroke="#6f9a63" stroke-width="1.2" opacity="0.88"/>
<circle cx="1046.0" cy="654.1" r="3.7" fill="#80a676" stroke="#6f9a63" stroke-width="1.2" opacity="0.88"/>
<circle cx="705.0" cy="624.4" r="3.7" fill="#80a676" stroke="#6f9a63" stroke-width="1.2" opacity="0.88"/>
</svg>